<svg xmlns="http://www.w3.org/2000/svg" width="31.67" height="32" viewBox="0 0 31.67 32"><path d="M23.041,6.566V.175H8.613V6.566H1.636m21.405,0H1.636m21.405,0h6.993m-6.993,0h6.993m-28.4,0A1.454,1.454,0,0,0,.6,7,1.49,1.49,0,0,0,.175,8.045M1.636,6.566.6,7,.175,8.045m0,0v22.3A1.49,1.49,0,0,0,.6,31.392a1.454,1.454,0,0,0,1.032.433h28.4a1.454,1.454,0,0,0,1.032-.433,1.49,1.49,0,0,0,.429-1.046V8.045A1.49,1.49,0,0,0,31.066,7a1.454,1.454,0,0,0-1.032-.433m-28.4,0h28.4m0,0h0m0,0h0m-19.482-4.6h-.175v4.6h10.9v-4.6H10.551ZM29.63,8.631V8.456H2.04v5.607l.051.051L5.6,17.664l.051.052H14.9V14.6h1.865v3.12h9.249l.051-.052,3.512-3.55.051-.051V8.631ZM2.04,29.761v.175H29.63v-13.2l-.3.3-2.543,2.571H16.767v3.153H14.9V19.605H4.882L2.339,17.034l-.3-.3v13.03Z" fill="none" stroke="#b49877" stroke-width="0.35"/></svg>