<svg xmlns="http://www.w3.org/2000/svg" width="32" height="29.959" viewBox="0 0 32 29.959"><path d="M25.425,7.794V1.338A1.162,1.162,0,0,0,24.267.175H7.733A1.162,1.162,0,0,0,6.575,1.337h0m-.175,0h.175m18.85,6.456.277.052-.277-.052L26.76,8.8l5.065,3.575V29.784H.175V12.379L6.5,7.846l.073-.052V1.338m-.073,0h.073m22.7,11.706.213-.14-.208-.149L25.7,10.191l-.277-.2v5.576l.271-.178ZM8.533,1.965H8.358V16.444l.084.051,4.633,2.821.082.05.086-.042,3.305-1.6L19.575,19.3l.091.047.086-.056,3.811-2.5.079-.052V1.965H8.533Zm8.064,17.8-.078-.041-.079.038L2.057,26.728l-.1.048v1.218H30.042V26.758l-.094-.049ZM2.224,14.8l-.266-.162V24.788l.251-.122,8.743-4.234.289-.14-.274-.167Zm19.509,5.326-.25.164.265.138,8.037,4.18.256.133V14.679l-.271.178ZM6.575,10.333V9.992l-.277.2L2.742,12.738l-.215.154.226.138L6.309,15.2l.266.162V10.333Z" fill="none" stroke="#b49877" stroke-width="0.35"/></svg>